<svg xmlns="http://www.w3.org/2000/svg" width="1376.377" height="970.704" viewBox="0 0 1376.377 970.704"><defs><style>.a,.m{fill:#2fd8c9;}.a{opacity:0.79;}.b{fill:#aaabb0;}.c{fill:#33323d;}.d{fill:#444053;}.e{fill:#4c4981;}.f{fill:#ffb9b9;}.g{fill:#282828;opacity:0.84;}.h,.l,.o{opacity:0.1;}.i{fill:#ae6e79;}.j{fill:#767d9f;}.k{fill:#fff;}.l,.r{fill:#f2f2f2;}.n{fill:#b96b6b;}.p{fill:#464a5f;}.q{fill:#9c9ca1;}.s{fill:#e8e2db;}.t{fill:#707070;}</style></defs><g transform="translate(-1098 -3249.832)"><path class="a" d="M643.469,108.022C587.52,86.575,528.4,68.66,468.044,70.912c-88.741,3.3-173.927,53.63-215.644,127.531-35.395,62.614-39.762,136-55.009,205.488-18.764,85.6-54.768,166.97-93.209,246.526-20.643,42.741-42.428,86.4-45.818,133.251-4.7,65.045,28.273,129.86,79.981,173.125s120.378,66.094,189.3,71.072c36.677,2.649,75,.192,107.581-15.906,34.468-17.032,59.592-47.808,94.2-64.6,32.068-15.561,69.583-17.736,105.587-15.714A497.543,497.543,0,0,1,772.86,959.328c50.325,17.813,97.12,43.623,147.266,61.692s106.311,28.153,157.626,13.078c48.242-14.166,86.328-48.563,120.669-83.4a1475.356,1475.356,0,0,0,153.893-183.49c30.989-43.777,59.833-89.96,73.531-140.98,26.2-97.548-9.851-207.6-89.82-274.218-66.257-55.192-155.175-79.147-242.215-93.684C1014.44,245.073,922.665,244.254,849.6,209.7,779.931,176.714,716.53,136.046,643.469,108.022Z" transform="translate(1040.079 3179.111)"/><path class="b" d="M632.58,619.747v46.49H645.8l-2.56-49.907Z" transform="translate(1268.442 3422.18)"/><path class="b" d="M477.41,612.417v46.49h13.232L488.082,609Z" transform="translate(1226.633 3420.13)"/><rect class="b" width="17.058" height="82.755" rx="6.67" transform="translate(1916.237 3955.768)"/><rect class="b" width="17.058" height="101.093" rx="6.67" transform="translate(1699.167 3937.417)"/><path class="b" d="M732.84,236.085s17.058-7.256,19.617,0,3.839,69.959,3.839,69.959H740.083Z" transform="translate(1221.878 3224.455)"/><path class="b" d="M591.969,236.085s-17.071-7.256-19.63,0-3.839,69.959-3.839,69.959h16.213Z" transform="translate(1177.611 3224.455)"/><path class="b" d="M531.469,116.28l-2.559,52.044h11.517V115Z" transform="translate(1240.516 3281.979)"/><path class="c" d="M581.17,309.188l3.417-75.077s-1.28-16.636,39.234-11.517S782.934,237.95,782.934,237.95v71.238Z" transform="translate(1180.214 3221.311)"/><path class="c" d="M754.638,599.8l-6.4,114.734s-93.85,52.044-207.74,2.559l10.237-120.71Z" transform="translate(1169.262 3326.116)"/><path class="d" d="M580.25,180.548l2.124,74.22h132.24l-7.678-98.1Z" transform="translate(1253.769 3293.632)"/><rect class="e" width="124.562" height="157.82" transform="translate(1723.91 3876.851)"/><path class="f" d="M612.85,613.371s17.916-14.076,20.9-9.815-10.647,22.611-16.2,20.474S612.85,613.371,612.85,613.371Z" transform="translate(1189.553 3327.898)"/><path class="g" d="M0,0H817.663V409.491H0Z" transform="translate(1476.696 3526.225)"/><path class="c" d="M582.122,206.482s-6.4-59.722,0-66.965S696.011,63.582,795.4,144.2c0,0,9.38.435,7.678,21.754a255.962,255.962,0,0,0,.2,40.527S589.377,221.837,582.122,206.482Z" transform="translate(1179.589 3188.796)"/><path class="h" d="M582.122,206.482s-6.4-59.722,0-66.965S696.011,63.582,795.4,144.2c0,0,9.38.435,7.678,21.754a255.962,255.962,0,0,0,.2,40.527S589.377,221.837,582.122,206.482Z" transform="translate(1179.589 3188.796)"/><path class="c" d="M582.122,212.482s-6.4-59.722,0-66.965S696.011,69.582,795.4,150.2c0,0,9.38.435,7.678,21.754a255.962,255.962,0,0,0,.2,40.527S589.377,227.837,582.122,212.482Z" transform="translate(1179.589 3190.474)"/><path class="e" d="M770.023,169.05s6.821,25.593,4.7,29.854-1.74,16.213-1.74,16.213.461,7.678-2.956,8.523-6.4,1.28-3.634,3.839,0,6.4,0,6.4-1.5,5.976,0,9.815-8.753,5.439-7.883,10.237,3.737,18.338,0,18.773,1.28,17.058-2.086,17.058-5.758,29.854-5.758,29.854-23.674-20.039-39.452-14.5c0,0,1.28-16.636,6.4-22.612s3.57-21.319,3.57-21.319l25.388-76.357Z" transform="translate(1215.847 3206.61)"/><path class="i" d="M667.114,464.619c-5.541,6.13-11.517-26.6-11.517-26.6s-15.778,21.754-26.016,7.256c-7.089-10.045-1.5-38.5,2.56-55.025,1.817-7.345,3.353-12.336,3.353-12.336l23.034-3.839s.077,5.016.589,11.107c.691,8.228,2.188,18.44,5.375,20.884C670.108,410.3,672.668,458.438,667.114,464.619Z" transform="translate(1193.061 3263.946)"/><path class="h" d="M662.873,147.989s-40.1-.422-49.907,20.9-10.237,28.588-14.076,31.992,41.794,21.332,41.794,21.332l2.137,73.363s8.958-9.073,23.456-4.965,32.849,0,32.849,0-.857-1.548,11.095,0,49.907-18.491,49.907-18.491.627-32.094-.218-38.927,27.078-57.047,27.078-57.047,21.754-20.9-.845-28.153c0,0-8-12.054-28.575-11.939S662.873,147.989,662.873,147.989Z" transform="translate(1184.92 3197.381)"/><path class="e" d="M662.873,146.989s-40.1-.422-49.907,20.9-10.237,28.588-14.076,31.992,41.794,21.332,41.794,21.332l2.137,73.363s8.958-9.073,23.456-4.965,32.849,0,32.849,0-.857-1.548,11.095,0,49.907-18.491,49.907-18.491S775.048,246.8,774.2,239.982s29.855-58.442,29.855-58.442,4.7-27.3-17.915-34.551c0,0-8-12.054-28.575-11.939S662.873,146.989,662.873,146.989Z" transform="translate(1184.876 3197.101)"/><path class="h" d="M657.9,385.136c-8.791-2.738-22.586,3.3-26.975,5.119,1.817-7.345,3.352-12.336,3.352-12.336l23.034-3.839S657.345,379.1,657.9,385.136Z" transform="translate(1194.409 3263.948)"/><path class="e" d="M611.45,185.71H599.089s-2.56,26.028,0,33.706,3.839,6.565,2.981,12.246,5.976,14.383,5.976,14.383.844,21.447,5.118,29.432-4.7,43.79-4.7,43.79a51.522,51.522,0,0,0,10.66,16.635c7.256,7.243,11.095,34.116,8.958,44.353s5.976,14.076,5.976,14.076,3.417,47.782,4.7,47.782,26.015-12.8,33.693-1.715l-5.976-43.931.435-84.88s-8.113-10.672-3.839-20.052-3.417-31.569-3.417-31.569L648.56,210.5Z" transform="translate(1185.328 3211.269)"/><path class="c" d="M554.331,713.083s-17.915-3.839-18.337,0-21.332,43.086,4.7,54.6,95.539,36.253,208.584,4.261c0,0,7.243,2.559,5.541-13.219s-1.7-33.271-1.7-33.271-17.071-4.7-29.867-2.982S599.119,746.789,554.331,713.083Z" transform="translate(1165.757 3358.276)"/><path class="h" d="M554.331,713.083s-17.915-3.839-18.337,0-21.332,43.086,4.7,54.6,95.539,36.253,208.584,4.261c0,0,7.243,2.559,5.541-13.219s-1.7-33.271-1.7-33.271-17.071-4.7-29.867-2.982S599.119,746.789,554.331,713.083Z" transform="translate(1165.757 3358.276)"/><path class="c" d="M554.331,709.083s-17.915-3.839-18.337,0-21.332,43.086,4.7,54.6,95.539,36.253,208.584,4.261c0,0,7.243,2.56,5.541-13.219s-1.7-33.271-1.7-33.271-17.071-4.7-29.867-2.982S599.119,742.789,554.331,709.083Z" transform="translate(1165.757 3357.157)"/><path class="d" d="M631.018,198.249c-1.1,6.258-3.6,12.272-3.98,18.606s2.06,13.539,7.908,16.021a26.657,26.657,0,0,1,4.722,1.919c2.252,1.523,3.174,4.389,3.647,7.076a38.649,38.649,0,0,1,.448,10.519c-.32,3.532-1.075,7.333.666,10.417,3.058,5.464,11.03,4.658,17.1,3.122l-2.086,16.162c-.167,1.28-.269,2.726.665,3.6a4.031,4.031,0,0,0,3.071.665c5.272-.333,10.7-1.062,15.215-3.839s7.883-7.947,7.025-13.155c-1-6.04-7.243-10.839-6.4-16.9.653-4.7,5.247-7.678,8.267-11.287,5.464-6.6,5.758-16.636,1.471-24.109s-12.566-12.106-21.089-12.95c-4.722-.473-9.636.1-14.076-1.536a10.672,10.672,0,0,1-6.526-6.885" transform="translate(1193.186 3214.06)"/><path class="j" d="M513.84,652.347l4.466-9.725s24.109-22.458,29.65-24.032,28.152-8.433,31.569-8.433,65.7-3.417,65.7-3.417l7.243,17.07L574.3,640.971l-26.348,19.195Z" transform="translate(1162.455 3329.014)"/><path class="f" d="M670.824,445.18,666.742,476.6l-1.574,12.093-18.338,2.559s-1.983-4.249-4.786-10.775c-8.51-19.809-24.531-60.656-15.241-67.707,12.349-9.393,15.356,21.754,15.356,21.754l14.076-6.833Z" transform="translate(1192.458 3274.273)"/><rect class="k" width="92.609" height="139.905" transform="translate(1767.819 3777.895)"/><rect class="l" width="92.609" height="139.905" transform="translate(1767.819 3777.895)"/><rect class="k" width="92.609" height="139.905" transform="translate(1810.16 3771.931) rotate(8.41)"/><rect class="m" width="47.667" height="72.006" transform="translate(1818.876 3785.13) rotate(8.41)"/><rect class="m" width="57.751" height="15.637" transform="translate(1803.342 3876.634) rotate(8.41)"/><circle class="h" cx="53.528" cy="53.528" r="53.528" transform="translate(1830.567 3317.858)"/><circle class="i" cx="53.528" cy="53.528" r="53.528" transform="translate(1830.567 3316.578)"/><path class="d" d="M649.332,224.57a6.093,6.093,0,0,1,.371-4.133c2.035-4.236,7.831-4.607,12.528-4.389,11.044.512,23.162.576,31.8-6.4,3.583-2.866,7.588-10.071,12.8-8.7,4.632,1.216,6.565,7.5,11.389,8.894,3.494,1.011,7.115-.6,10.672-1.28,5.119-1.011,10.365-.166,15.561-.128s10.839-.947,14.383-4.748c4.786-5.119,4.005-13.117,3.583-20.129a108.367,108.367,0,0,1,1.83-27.052c1.74-8.855,4.415-18.76-.473-26.348-4.658-7.23-14.307-9.214-20.9-14.754-6.168-5.119-9.431-13.321-15.945-18.069-8.2-5.976-19.348-5.119-29.432-4.082l-21.882,2.329c-5.643.6-11.517,1.28-16.162,4.645-8.382,6.066-9.534,18.67-17.467,25.312-3.532,2.943-8.049,4.4-12.08,6.6s-7.921,5.682-8.382,10.237c-.384,3.839,1.689,7.384,2.7,11.082,2.393,8.83-1.343,17.915-3.736,26.809s-2.854,19.694,4.1,25.593c1.407,1.2,3.045,2.124,4.415,3.378,4.7,4.287,5.336,11.517,4.248,17.762" transform="translate(1190.607 3185.205)"/><ellipse class="d" cx="1.28" cy="3.199" rx="1.28" ry="3.199" transform="translate(1887.209 3430.57)"/><ellipse class="d" cx="1.28" cy="3.199" rx="1.28" ry="3.199" transform="translate(1887.209 3443.904)"/><path class="i" d="M661.121,451.31c1.369-1.574,2.278-5.618,2.8-10.954L648.67,421.34S655.132,458.207,661.121,451.31Z" transform="translate(1199.242 3277.165)"/><path class="h" d="M718,709.072s-25.03,38.7-103.23,34.551c-73.67-3.839-109.628-40.092-107.914-52.888s-4.7-43.944,11.082-52.9c9.15-5.182,21.191-2.111,29.688,1.395a16.763,16.763,0,0,0,17.621-3.161c7.768-7,22.253-14.883,45.121-8.676a16.25,16.25,0,0,0,8.958-.166c9.521-2.9,32.183-7.947,48.627,3.25a16.635,16.635,0,0,0,17.813.678l.23-.141c7.678-4.7,43.508,39.669,43.508,39.669S731.215,704.811,718,709.072Z" transform="translate(1160.199 3333.712)"/><path class="j" d="M718,710.072s-25.03,38.7-103.23,34.551c-73.67-3.839-109.628-40.092-107.914-52.888s-4.7-43.944,11.082-52.9c9.15-5.183,21.191-2.112,29.688,1.395a16.763,16.763,0,0,0,17.621-3.161c7.768-7,22.253-14.882,45.121-8.676a16.253,16.253,0,0,0,8.958-.166c9.521-2.9,32.183-7.947,48.627,3.25a16.635,16.635,0,0,0,17.813.678l.23-.141c7.678-4.7,43.508,39.669,43.508,39.669S731.215,705.811,718,710.072Z" transform="translate(1160.199 3333.992)"/><circle class="h" cx="50.982" cy="50.982" r="50.982" transform="translate(1724.006 3957.252)"/><circle class="f" cx="50.982" cy="50.982" r="50.982" transform="translate(1724.006 3958.532)"/><path class="n" d="M588.939,630.2c-5.349,1.446-10.621,4.21-13.232,8.753-1.574,2.739-2.124,6.027-4.4,8.305-3.225,3.237-8.663,3.3-13.027,5.119s-7.243,8.215-2.969,10.237c-4.453.23-7.755,4.338-8.3,8.42s1,8.151,2.5,12.042c4.888,12.592,10.147,25.734,20.922,34.692,17.557,14.614,44.02,13.935,67.6,12.387a11.06,11.06,0,0,0,5.541-1.28c2.559-1.689,2.879-4.927,3.3-7.768,1.779-12.131,8.356-23.149,12.656-34.73s6.065-25.183-1.177-35.433C647.688,635.745,606.88,625.341,588.939,630.2Z" transform="translate(1171.423 3335.238)"/><path class="h" d="M662.8,462.414l-1.574,12.093-18.338,2.559s-1.983-4.248-4.786-10.775l24.4-4.581Z" transform="translate(1196.353 3288.455)"/><path class="j" d="M682.828,729.314,693.5,716.94,691.364,648.7a110.69,110.69,0,0,0,2.137-14.934c.422-7.256-5.336-23.456-5.336-23.456a50.82,50.82,0,0,1,3.621-9.393c2.559-5.119-3.609-16.635-3.609-16.635s-9.188-29.855-5.349-44.788-.934-23.456-.934-23.456-3.749-16.636-3.327-23.456-8.535-13.232-8.535-13.232l-6.821-16.636-27.3,5.119v57.585s1.7,55.025,0,65.7,3.4,20.9,3.4,20.9-2.982,15.778-.422,21.754,7.678,20.474,7.678,20.474a33.272,33.272,0,0,0,.857,15.561c2.559,7.473,0,11.734,0,11.734Z" transform="translate(1195.523 3288.735)"/><g class="o" transform="translate(1809.551 3323.885)"><path d="M732.938,142.206a108.319,108.319,0,0,0-1.932,22.74,108.837,108.837,0,0,1,1.984-18.888c1.126-5.682,2.559-11.8,2.252-17.467A106.252,106.252,0,0,1,732.938,142.206Z" transform="translate(-587.598 -128.59)"/><path d="M629.026,184.048c-1.369-1.28-3.007-2.175-4.415-3.391-3.737-3.186-5.31-7.806-5.618-12.8-.371,6.4.934,12.592,5.618,16.636,1.408,1.216,3.046,2.137,4.415,3.391a15.638,15.638,0,0,1,4.632,10.685C634.029,193.2,632.941,187.605,629.026,184.048Z" transform="translate(-618.934 -117.608)"/><path d="M624.381,146.713a24.12,24.12,0,0,0-.691-8.049c-.742-2.738-2.073-5.413-2.559-8.164a8.511,8.511,0,0,1-.141.921c-.371,3.839,1.7,7.384,2.7,11.082A21.756,21.756,0,0,1,624.381,146.713Z" transform="translate(-618.371 -128.056)"/><path d="M755.715,178.561c-3.545,3.839-9.188,4.786-14.383,4.748s-10.455-.883-15.561.141c-3.558.717-7.179,2.316-10.673,1.28-4.824-1.395-6.757-7.678-11.376-8.894-5.259-1.382-9.265,5.822-12.8,8.689-8.638,6.91-20.756,6.846-31.8,6.4-4.7-.218-10.493.154-12.515,4.4a5.937,5.937,0,0,0-.371,4.133L630.6,201.915a30.3,30.3,0,0,1-.422,3.839l16.06-2.559a5.937,5.937,0,0,1,.371-4.133c2.022-4.248,7.819-4.62,12.515-4.4,11.043.512,23.162.576,31.8-6.4,3.583-2.866,7.588-10.071,12.8-8.689,4.619,1.2,6.552,7.5,11.376,8.894,3.493,1,7.115-.6,10.673-1.28,5.119-1.024,10.365-.179,15.561-.141s10.839-.947,14.383-4.748,4.057-9.469,3.839-15C759.4,171.587,758.517,175.554,755.715,178.561Z" transform="translate(-615.788 -117.764)"/></g><g class="o" transform="translate(1820.43 3434.46)"><path d="M638.093,225.931a25.88,25.88,0,0,0-4.722-1.919,12.221,12.221,0,0,1-6.181-6.322c.96,4.415,3.391,8.433,7.46,10.161a25.891,25.891,0,0,1,4.722,1.919,7.09,7.09,0,0,1,2.265,2.649C641.125,229.911,640.191,227.351,638.093,225.931Z" transform="translate(-627.19 -214.248)"/><path d="M656.47,249.056c-5.9,1.5-13.6,2.278-16.84-2.726a8.79,8.79,0,0,0,1.024,3.442c2.764,4.927,9.521,4.76,15.266,3.545Z" transform="translate(-623.711 -206.238)"/><path d="M676.933,251.2c.819,5.2-2.559,10.378-7.038,13.1s-9.943,3.481-15.215,3.839a5.221,5.221,0,0,1-2.483-.281,3.045,3.045,0,0,0,3.762,4.12c5.272-.333,10.7-1.062,15.215-3.839s7.9-7.947,7.025-13.155a14.519,14.519,0,0,0-1.267-3.788Z" transform="translate(-620.27 -204.876)"/><path d="M678.567,215a21.063,21.063,0,0,1-3.839,18.107c-3.02,3.66-7.614,6.59-8.266,11.287a10.658,10.658,0,0,0,1.279,6.232,8.334,8.334,0,0,1,0-2.393c.653-4.7,5.247-7.678,8.267-11.287C680.973,230.945,681.664,222.1,678.567,215Z" transform="translate(-616.223 -215)"/></g><g class="o" transform="translate(1718.31 3963.669)"><path d="M556.9,654.475c4.351-1.8,9.789-1.868,13.027-5.119,2.278-2.278,2.828-5.567,4.4-8.292,2.559-4.556,7.87-7.307,13.219-8.753,17.915-4.863,58.762,5.528,69.409,20.59a27.962,27.962,0,0,1,4.888,15.458,28.894,28.894,0,0,0-4.875-18c-10.647-15.062-51.455-25.452-69.409-20.59-5.349,1.446-10.621,4.2-13.219,8.753-1.574,2.726-2.124,6.014-4.4,8.292-3.238,3.238-8.676,3.3-13.027,5.119-3.314,1.369-5.771,5.413-4.875,8.126a8.8,8.8,0,0,1,4.863-5.579Z" transform="translate(-545.5 -628.555)"/><path d="M547.031,665.658c.538-4.095,3.839-8.19,8.305-8.42a3.4,3.4,0,0,1-1.958-2.188,9.944,9.944,0,0,0-6.4,8.049,13.554,13.554,0,0,0,0,3.135A2.193,2.193,0,0,0,547.031,665.658Z" transform="translate(-546.889 -621.145)"/></g><rect class="k" width="116.449" height="151.857" transform="translate(1871.738 3544.447)"/><rect class="l" width="116.449" height="151.857" transform="translate(1871.738 3544.447)"/><rect class="k" width="116.449" height="151.857" transform="translate(1917.381 3573.099) rotate(-9.76)"/><rect class="m" width="27.359" height="35.677" transform="translate(1945.547 3675.122) rotate(-9.76)"/><rect class="m" width="27.359" height="35.677" transform="translate(1982.556 3668.698) rotate(-9.76)"/><rect class="m" width="95.943" height="35.837" transform="translate(1941.296 3628.781) rotate(-9.744)"/><rect class="m" width="95.943" height="7.995" transform="translate(1933.508 3586.626) rotate(-9.744)"/><rect class="m" width="95.943" height="7.995" transform="translate(1936.583 3601.121) rotate(-9.744)"/><path class="i" d="M726.475,268.71s-53.528,53.746-26.656,67.4,44.366-45.428,44.366-45.428l4.249-13.436Z" transform="translate(1210.79 3234.481)"/><path class="h" d="M716.786,266.689,710.17,281.3s32.631,4.581,39.452,14.447l-4.044-25.785-4.8-11.005Z" transform="translate(1215.692 3231.754)"/><path class="e" d="M717.786,265.689,711.17,280.3s32.631,4.581,39.452,14.447l-4.044-25.785-4.8-11.005Z" transform="translate(1215.961 3231.474)"/><path class="p" d="M812.934,403.26l-.7.486.972.435,1.05-.09.128-.729Z" transform="translate(1316.913 3362.593)"/><path class="h" d="M812.934,403.26l-.7.486.972.435,1.05-.09.128-.729Z" transform="translate(1316.913 3362.593)"/><path class="q" d="M813.06,403.456l-.717.461-.563-.691.346-.563.32-.1Z" transform="translate(1316.797 3362.398)"/><path class="h" d="M813.06,403.456l-.717.461-.563-.691.346-.563.32-.1Z" transform="translate(1316.797 3362.398)"/><path class="q" d="M1008.591,421.987,956.2,346.321a6.232,6.232,0,0,0-8.676-1.6L830.744,424.879a6.257,6.257,0,0,0-1.625,8.689l52.248,76.626Z" transform="translate(1246.486 3255.43)"/><path class="h" d="M1008.591,421.987,956.2,346.321a6.232,6.232,0,0,0-8.676-1.6L830.744,424.879a6.257,6.257,0,0,0-1.625,8.689l52.248,76.626Z" transform="translate(1246.486 3255.43)"/><path class="r" d="M1009.592,422.127,957.2,346.461a6.244,6.244,0,0,0-8.689-1.6L831.745,425.07a6.27,6.27,0,0,0-1.638,8.689l52.249,76.664Z" transform="translate(1246.753 3255.468)"/><path class="p" d="M1041.668,419.744,998.159,405.77,870.91,493.977l44.2,14.46a6.693,6.693,0,0,0,5.925-.9l120.992-85.43a1.28,1.28,0,0,0-.358-2.367Z" transform="translate(1256.466 3272.811)"/><path class="h" d="M1041.668,419.744,998.159,405.77,870.91,493.977l44.2,14.46a6.693,6.693,0,0,0,5.925-.9l120.992-85.43a1.28,1.28,0,0,0-.358-2.367Z" transform="translate(1256.466 3272.811)"/><path class="s" d="M1041.458,419.057,997.949,405.07,870.7,493.277l44.2,14.435a6.641,6.641,0,0,0,5.925-.883l120.992-85.43a1.28,1.28,0,0,0-.359-2.342Z" transform="translate(1256.408 3272.615)"/><g class="o" transform="translate(2109.769 3642.52)"><path d="M956.314,403.483l-3.212-4.607a1.28,1.28,0,0,0-1.741-.32l-4.773,3.186a1.279,1.279,0,0,0-.346,1.728l2.956,4.543a1.28,1.28,0,0,0,1.728.371l5.029-3.161A1.279,1.279,0,0,0,956.314,403.483Z" transform="translate(-830.199 -371.785)"/><path d="M949.616,408.12l-3.225-4.594a1.28,1.28,0,0,0-1.74-.32l-4.76,3.212a1.28,1.28,0,0,0-.358,1.728l2.956,4.543a1.28,1.28,0,0,0,1.727.384l5.042-3.161a1.28,1.28,0,0,0,.359-1.791Z" transform="translate(-832.074 -370.485)"/><path d="M942.578,412.99l-3.225-4.594a1.28,1.28,0,0,0-1.74-.32l-4.773,3.212a1.28,1.28,0,0,0-.346,1.74l2.956,4.543a1.28,1.28,0,0,0,1.728.371l5.029-3.161a1.28,1.28,0,0,0,.371-1.791Z" transform="translate(-834.045 -369.123)"/><path d="M935.444,417.931l-3.225-4.607a1.279,1.279,0,0,0-1.727-.32l-4.773,3.225a1.28,1.28,0,0,0-.345,1.728l2.956,4.543a1.279,1.279,0,0,0,1.714.384l5.042-3.174a1.28,1.28,0,0,0,.358-1.779Z" transform="translate(-836.035 -367.743)"/><path d="M928.326,422.86l-3.225-4.594a1.28,1.28,0,0,0-1.74-.32l-4.76,3.212a1.28,1.28,0,0,0-.358,1.728l2.956,4.543a1.28,1.28,0,0,0,1.728.384l5.042-3.174a1.28,1.28,0,0,0,.359-1.779Z" transform="translate(-838.028 -366.363)"/><path d="M921.66,428.423l-4.005-5.707a.576.576,0,0,0-.806-.153l-5.861,3.954a.576.576,0,0,0-.166.806l3.673,5.643a.589.589,0,0,0,.806.179l6.193-3.839a.588.588,0,0,0,.167-.883Z" transform="translate(-840.077 -365.042)"/><path d="M914.546,433.353l-4.031-5.707a.589.589,0,0,0-.819-.154l-5.861,3.954a.589.589,0,0,0-.154.806l3.673,5.643a.563.563,0,0,0,.806.179l6.181-3.839a.576.576,0,0,0,.2-.883Z" transform="translate(-842.074 -363.663)"/><path d="M908.23,437.709l-4.005-5.656a.589.589,0,0,0-.806-.141l-5.861,3.941a.6.6,0,0,0-.167.819l3.673,5.643a.6.6,0,0,0,.806.179l6.193-3.839a.589.589,0,0,0,.167-.947Z" transform="translate(-843.832 -362.427)"/><path d="M901.17,442.6l-4.005-5.707a.589.589,0,0,0-.806-.141l-5.861,3.941a.589.589,0,0,0-.167.819L894,447.156a.6.6,0,0,0,.806.179L901,443.5a.6.6,0,0,0,.166-.9Z" transform="translate(-845.807 -361.073)"/><path d="M894.33,447.3l-4.005-5.707a.576.576,0,0,0-.806-.153l-5.861,3.954a.576.576,0,0,0-.166.806l3.673,5.643a.588.588,0,0,0,.806.179l6.193-3.839a.589.589,0,0,0,.166-.883Z" transform="translate(-847.72 -359.762)"/><path d="M887.482,452.083l-3.967-5.72a.588.588,0,0,0-.806-.141l-5.861,3.941a.589.589,0,0,0-.166.819l3.673,5.643a.6.6,0,0,0,.806.179l6.194-3.839a.589.589,0,0,0,.128-.883Z" transform="translate(-849.625 -358.425)"/><path d="M880.65,456.813l-4.005-5.707a.576.576,0,0,0-.806-.154l-5.861,3.928a.576.576,0,0,0-.166.806l3.672,5.643a.589.589,0,0,0,.806.179l6.193-3.839a.588.588,0,0,0,.166-.857Z" transform="translate(-851.546 -357.102)"/><path d="M951.808,396.973l-3.225-4.607a1.28,1.28,0,0,0-1.74-.32l-4.722,3.225a1.28,1.28,0,0,0-.359,1.728l2.956,4.543a1.279,1.279,0,0,0,1.727.371l5.042-3.161a1.28,1.28,0,0,0,.32-1.779Z" transform="translate(-831.451 -373.606)"/><path d="M941.966,382.747l-3.225-4.632a1.279,1.279,0,0,0-1.728-.32l-4.773,3.212a1.28,1.28,0,0,0-.358,1.728l2.956,4.543a1.28,1.28,0,0,0,1.728.384l5.042-3.161A1.28,1.28,0,0,0,941.966,382.747Z" transform="translate(-834.214 -377.59)"/><path d="M945.1,401.609l-3.225-4.594a1.28,1.28,0,0,0-1.728-.32l-4.773,3.212a1.28,1.28,0,0,0-.346,1.728l2.943,4.543a1.279,1.279,0,0,0,1.727.384l5.042-3.161a1.28,1.28,0,0,0,.358-1.792Z" transform="translate(-833.334 -372.304)"/><path d="M938.067,406.48l-3.225-4.594a1.28,1.28,0,0,0-1.74-.32l-4.761,3.174a1.28,1.28,0,0,0-.358,1.74l2.956,4.543a1.28,1.28,0,0,0,1.728.371l5.042-3.161A1.279,1.279,0,0,0,938.067,406.48Z" transform="translate(-835.306 -370.944)"/><path d="M930.934,411.423l-3.212-4.607a1.28,1.28,0,0,0-1.74-.32l-4.773,3.263a1.28,1.28,0,0,0-.346,1.728l2.956,4.543a1.28,1.28,0,0,0,1.728.371l5.029-3.161a1.28,1.28,0,0,0,.358-1.817Z" transform="translate(-837.297 -369.565)"/><path d="M935.416,387.609l-3.225-4.594a1.28,1.28,0,0,0-1.728-.32l-4.773,3.212a1.28,1.28,0,0,0-.358,1.728l2.956,4.543a1.28,1.28,0,0,0,1.727.384l5.042-3.161a1.28,1.28,0,0,0,.358-1.792Z" transform="translate(-836.046 -376.22)"/><path d="M928.376,392.493l-3.225-4.607a1.28,1.28,0,0,0-1.74-.32l-4.76,3.174a1.28,1.28,0,0,0-.358,1.728l2.956,4.543a1.28,1.28,0,0,0,1.728.371l5.042-3.161A1.28,1.28,0,0,0,928.376,392.493Z" transform="translate(-838.014 -374.859)"/><path d="M921.244,397.421l-3.225-4.594a1.28,1.28,0,0,0-1.728-.333l-4.773,3.263a1.279,1.279,0,0,0-.346,1.728l2.956,4.543a1.279,1.279,0,0,0,1.727.384l5.029-3.173a1.28,1.28,0,0,0,.358-1.817Z" transform="translate(-840.006 -373.478)"/><path d="M923.806,416.35l-3.225-4.594a1.279,1.279,0,0,0-1.727-.333l-4.735,3.225a1.28,1.28,0,0,0-.346,1.728l2.9,4.543a1.279,1.279,0,0,0,1.715.384l5.042-3.174a1.279,1.279,0,0,0,.371-1.779Z" transform="translate(-839.279 -368.184)"/><path d="M916.7,421.28l-3.225-4.594a1.279,1.279,0,0,0-1.74-.32l-4.76,3.212a1.279,1.279,0,0,0-.358,1.727l2.956,4.543a1.28,1.28,0,0,0,1.728.384l5.042-3.161a1.28,1.28,0,0,0,.358-1.792Z" transform="translate(-841.281 -366.805)"/><path d="M910.03,426.843l-4.005-5.707a.576.576,0,0,0-.806-.153l-5.861,3.954a.576.576,0,0,0-.166.806l3.673,5.643a.576.576,0,0,0,.807.179l6.193-3.839a.589.589,0,0,0,.166-.883Z" transform="translate(-843.329 -365.483)"/><path d="M903.717,431.213l-4.005-5.72a.589.589,0,0,0-.806-.141l-5.848,3.941a.6.6,0,0,0-.167.819l3.673,5.643a.6.6,0,0,0,.806.179l6.194-3.839a.563.563,0,0,0,.154-.883Z" transform="translate(-845.091 -364.261)"/><path d="M896.66,436.09l-4.005-5.707a.588.588,0,0,0-.806-.141l-5.861,3.941a.576.576,0,0,0-.167.806l3.673,5.656a.6.6,0,0,0,.806.179l6.194-3.839a.6.6,0,0,0,.166-.9Z" transform="translate(-847.068 -362.894)"/><path d="M889.82,440.833l-4.005-5.707a.576.576,0,0,0-.806-.153l-5.861,3.9a.576.576,0,0,0-.167.806l3.673,5.643a.589.589,0,0,0,.806.179l6.193-3.839a.589.589,0,0,0,.166-.832Z" transform="translate(-848.982 -361.571)"/><path d="M933.374,399.709l-3.225-4.594a1.28,1.28,0,0,0-1.728-.32l-4.773,3.225a1.279,1.279,0,0,0-.346,1.728l2.956,4.543a1.28,1.28,0,0,0,1.715.371l5.042-3.161a1.28,1.28,0,0,0,.358-1.792Z" transform="translate(-836.614 -372.836)"/><path d="M926.246,404.653l-3.225-4.607a1.28,1.28,0,0,0-1.74-.32l-4.76,3.225a1.28,1.28,0,0,0-.359,1.728l2.956,4.543a1.28,1.28,0,0,0,1.728.384l5.042-3.174a1.28,1.28,0,0,0,.358-1.779Z" transform="translate(-838.61 -371.458)"/><path d="M919.137,409.58l-3.225-4.594a1.28,1.28,0,0,0-1.74-.32l-4.773,3.212a1.279,1.279,0,0,0-.345,1.728l2.956,4.543a1.28,1.28,0,0,0,1.728.384l5.029-3.174a1.28,1.28,0,0,0,.371-1.779Z" transform="translate(-840.599 -370.077)"/><path d="M912,414.509l-3.225-4.594a1.28,1.28,0,0,0-1.728-.32l-4.773,3.212a1.28,1.28,0,0,0-.346,1.728l2.956,4.594a1.28,1.28,0,0,0,1.715.384l5.042-3.161a1.28,1.28,0,0,0,.358-1.843Z" transform="translate(-842.59 -368.697)"/><path d="M905.389,420.073l-4.005-5.707a.576.576,0,0,0-.806-.153l-5.861,3.954a.588.588,0,0,0-.166.806l3.672,5.656a.576.576,0,0,0,.806.166l6.194-3.839a.589.589,0,0,0,.166-.883Z" transform="translate(-844.626 -367.377)"/><path d="M899.039,424.443l-4.005-5.72a.6.6,0,0,0-.819-.141l-5.848,3.942a.6.6,0,0,0-.166.819l3.673,5.643a.589.589,0,0,0,.806.179l6.194-3.839a.589.589,0,0,0,.166-.883Z" transform="translate(-846.402 -366.155)"/><path d="M891.981,429.3l-4.005-5.72a.6.6,0,0,0-.819-.141l-5.861,3.941a.614.614,0,0,0-.166.819l3.685,5.643a.588.588,0,0,0,.806.179l6.181-3.839a.576.576,0,0,0,.179-.883Z" transform="translate(-848.378 -364.796)"/><path d="M885.14,434.063l-4.005-5.707a.589.589,0,0,0-.819-.154l-5.861,3.954a.589.589,0,0,0-.154.806l3.673,5.643a.563.563,0,0,0,.806.179l6.181-3.839a.576.576,0,0,0,.179-.883Z" transform="translate(-850.29 -363.465)"/><path d="M882.98,445.56l-4.005-5.707a.589.589,0,0,0-.806-.141l-5.861,3.941a.576.576,0,0,0-.166.806l3.672,5.656a.6.6,0,0,0,.806.179l6.194-3.839a.6.6,0,0,0,.166-.9Z" transform="translate(-850.894 -360.245)"/><path d="M876.14,450.3l-4.005-5.707a.576.576,0,0,0-.806-.154l-5.861,3.954a.576.576,0,0,0-.166.806l3.673,5.643a.589.589,0,0,0,.806.179l6.193-3.839a.588.588,0,0,0,.166-.883Z" transform="translate(-852.807 -358.923)"/><path d="M886.852,421.906l-3.839-5.375a.793.793,0,0,0-1.088-.192l-5.528,3.724a.781.781,0,0,0-.217,1.088l3.455,5.311a.767.767,0,0,0,1.075.243l5.848-3.673a.793.793,0,0,0,.294-1.126Z" transform="translate(-849.775 -366.791)"/><path d="M880,426.649l-3.775-5.375a.78.78,0,0,0-1.088-.2l-5.528,3.788a.767.767,0,0,0-.218,1.075l3.455,5.323a.793.793,0,0,0,1.075.243l5.848-3.673a.793.793,0,0,0,.23-1.177Z" transform="translate(-851.674 -365.469)"/><path d="M873.158,431.389,869.383,426a.793.793,0,0,0-1.088-.192l-5.528,3.724a.78.78,0,0,0-.218,1.088L866,435.932a.768.768,0,0,0,1.075.243l5.848-3.673a.78.78,0,0,0,.23-1.113Z" transform="translate(-853.587 -364.143)"/><path d="M866.449,436.3l-4.005-5.72a.589.589,0,0,0-.807-.141l-5.861,3.941a.6.6,0,0,0-.166.819l3.673,5.643a.6.6,0,0,0,.806.179l6.194-3.839a.563.563,0,0,0,.166-.883Z" transform="translate(-855.516 -362.838)"/><path d="M949.213,390.041l-3.468-4.927a1.28,1.28,0,0,0-1.74-.307l-13.539,9.482a1.28,1.28,0,0,0-.333,1.715l3.263,5.042a1.28,1.28,0,0,0,1.779.345l13.744-9.61A1.279,1.279,0,0,0,949.213,390.041Z" transform="translate(-834.704 -375.632)"/><path d="M880.246,438.717l-4.249-6a.575.575,0,0,0-.819-.141l-14.614,10.237a.576.576,0,0,0-.154.794l3.992,6.181a.589.589,0,0,0,.832.166l14.857-10.4A.6.6,0,0,0,880.246,438.717Z" transform="translate(-854.174 -362.244)"/><path d="M920.4,402.788l-3.916-5.733a.588.588,0,0,0-.806-.154l-32.452,21.908a.588.588,0,0,0-.166.806l4.005,6.142a.589.589,0,0,0,.832.166l32.35-22.317a.588.588,0,0,0,.153-.819Z" transform="translate(-847.84 -372.217)"/></g><path class="p" d="M956.986,403.6,953.761,399a1.279,1.279,0,0,0-1.74-.32l-4.76,3.225a1.28,1.28,0,0,0-.358,1.728l2.956,4.543a1.28,1.28,0,0,0,1.728.384l5.042-3.174a1.28,1.28,0,0,0,.359-1.779Z" transform="translate(1277.664 3270.768)"/><path class="p" d="M950.246,408.239l-3.225-4.594a1.279,1.279,0,0,0-1.727-.32l-4.773,3.212a1.28,1.28,0,0,0-.359,1.728l2.956,4.543a1.28,1.28,0,0,0,1.727.384l5.042-3.161a1.28,1.28,0,0,0,.358-1.792Z" transform="translate(1275.78 3272.07)"/><path class="p" d="M943.246,413.12l-3.225-4.594a1.28,1.28,0,0,0-1.74-.32l-4.761,3.225a1.279,1.279,0,0,0-.358,1.727l2.956,4.543a1.279,1.279,0,0,0,1.727.371l5.042-3.161a1.28,1.28,0,0,0,.358-1.792Z" transform="translate(1273.822 3273.433)"/><path class="p" d="M936.108,418.051l-3.225-4.607a1.28,1.28,0,0,0-1.728-.32l-4.773,3.225a1.279,1.279,0,0,0-.333,1.791l2.956,4.543a1.279,1.279,0,0,0,1.727.384l5.029-3.174a1.28,1.28,0,0,0,.346-1.843Z" transform="translate(1271.822 3274.81)"/><path class="p" d="M928.984,422.979l-3.225-4.594a1.28,1.28,0,0,0-1.728-.32l-4.773,3.212a1.279,1.279,0,0,0-.346,1.727l2.943,4.543a1.279,1.279,0,0,0,1.727.384l5.042-3.174a1.279,1.279,0,0,0,.359-1.779Z" transform="translate(1272.03 3276.192)"/><path class="p" d="M922.32,428.543l-4.006-5.707a.576.576,0,0,0-.806-.154l-5.861,3.954a.576.576,0,0,0-.166.806l3.672,5.643a.589.589,0,0,0,.806.179l6.194-3.839a.589.589,0,0,0,.166-.883Z" transform="translate(1270.05 3277.512)"/><path class="p" d="M915.2,433.473l-4.005-5.707a.589.589,0,0,0-.819-.153l-5.848,3.954a.576.576,0,0,0-.166.806l3.672,5.656a.576.576,0,0,0,.806.166l6.194-3.839a.6.6,0,0,0,.167-.883Z" transform="translate(1268.132 3278.89)"/><path class="p" d="M908.889,437.843l-4.005-5.72a.589.589,0,0,0-.806-.141l-5.861,3.89a.6.6,0,0,0-.166.819l3.672,5.643a.6.6,0,0,0,.806.179l6.194-3.839a.589.589,0,0,0,.166-.832Z" transform="translate(1266.432 3280.113)"/><path class="p" d="M901.831,442.722l-4.005-5.669a.589.589,0,0,0-.806-.141l-5.861,3.941a.589.589,0,0,0-.166.819l3.673,5.643a.6.6,0,0,0,.806.179l6.193-3.839a.589.589,0,0,0,.167-.934Z" transform="translate(1264.529 3281.491)"/><path class="p" d="M894.99,447.463l-4.006-5.707a.576.576,0,0,0-.806-.154l-5.861,3.954a.576.576,0,0,0-.167.806l3.673,5.643a.576.576,0,0,0,.806.179l6.194-3.839a.589.589,0,0,0,.166-.883Z" transform="translate(1262.686 3282.803)"/><path class="p" d="M888.149,452.2l-4.005-5.72a.588.588,0,0,0-.806-.141l-5.861,3.941a.6.6,0,0,0-.167.819l3.673,5.643a.6.6,0,0,0,.806.179l6.194-3.839a.589.589,0,0,0,.166-.883Z" transform="translate(1260.844 3284.128)"/><path class="p" d="M881.31,456.933l-4.005-5.707a.576.576,0,0,0-.806-.153l-5.861,3.954a.576.576,0,0,0-.166.806l3.672,5.643a.576.576,0,0,0,.806.179l6.194-3.839a.589.589,0,0,0,.166-.883Z" transform="translate(1259 3285.451)"/><path class="p" d="M952.474,397.121l-3.225-4.607a1.28,1.28,0,0,0-1.728-.32l-4.773,3.225a1.28,1.28,0,0,0-.345,1.728l2.943,4.543a1.28,1.28,0,0,0,1.728.384l5.042-3.173a1.28,1.28,0,0,0,.359-1.779Z" transform="translate(1276.405 3268.957)"/><path class="p" d="M942.624,382.859l-3.225-4.594a1.28,1.28,0,0,0-1.728-.32l-4.773,3.212a1.28,1.28,0,0,0-.346,1.728l2.956,4.543a1.279,1.279,0,0,0,1.715.384l5.042-3.161a1.28,1.28,0,0,0,.358-1.792Z" transform="translate(1273.65 3264.972)"/><path class="p" d="M945.764,401.734l-3.225-4.62a1.28,1.28,0,0,0-1.728-.32l-4.773,3.212a1.279,1.279,0,0,0-.346,1.728l2.956,4.543a1.28,1.28,0,0,0,1.715.384l5.042-3.161a1.279,1.279,0,0,0,.358-1.766Z" transform="translate(1274.529 3270.243)"/><path class="p" d="M938.714,406.6,935.54,402a1.28,1.28,0,0,0-1.728-.32L929.04,404.9a1.28,1.28,0,0,0-.346,1.74l2.943,4.543a1.279,1.279,0,0,0,1.728.371l5.042-3.161a1.279,1.279,0,0,0,.307-1.791Z" transform="translate(1272.57 3271.611)"/><path class="p" d="M931.606,411.543l-3.225-4.607a1.28,1.28,0,0,0-1.74-.32l-4.76,3.225a1.28,1.28,0,0,0-.358,1.728l2.956,4.543a1.28,1.28,0,0,0,1.728.384l5.042-3.173a1.28,1.28,0,0,0,.358-1.779Z" transform="translate(1272.734 3272.989)"/><path class="p" d="M936.074,387.734l-3.225-4.619a1.28,1.28,0,0,0-1.728-.32l-4.773,3.212a1.28,1.28,0,0,0-.345,1.728l2.956,4.543a1.28,1.28,0,0,0,1.715.384l5.042-3.161A1.28,1.28,0,0,0,936.074,387.734Z" transform="translate(1271.819 3266.328)"/><path class="p" d="M929.036,392.611,925.811,388a1.28,1.28,0,0,0-1.728-.32l-4.773,3.225a1.279,1.279,0,0,0-.358,1.728l2.956,4.543a1.28,1.28,0,0,0,1.728.384l5.042-3.174a1.279,1.279,0,0,0,.358-1.779Z" transform="translate(1272.041 3267.696)"/><path class="p" d="M921.916,397.54l-3.225-4.594a1.28,1.28,0,0,0-1.74-.32l-4.76,3.212a1.279,1.279,0,0,0-.358,1.728l2.956,4.555a1.28,1.28,0,0,0,1.728.384l5.029-3.173a1.28,1.28,0,0,0,.371-1.791Z" transform="translate(1270.123 3269.076)"/><path class="p" d="M924.474,416.469l-3.225-4.594a1.279,1.279,0,0,0-1.727-.32l-4.773,3.186a1.279,1.279,0,0,0-.345,1.728l2.956,4.543a1.28,1.28,0,0,0,1.715.384l5.042-3.173A1.28,1.28,0,0,0,924.474,416.469Z" transform="translate(1270.815 3274.371)"/><path class="p" d="M917.356,421.4l-3.225-4.594a1.28,1.28,0,0,0-1.728-.32l-4.773,3.276a1.279,1.279,0,0,0-.358,1.728l2.956,4.543a1.28,1.28,0,0,0,1.727.384L917,423.254a1.28,1.28,0,0,0,.358-1.856Z" transform="translate(1268.894 3275.75)"/><path class="p" d="M910.679,426.963l-4.005-5.707a.576.576,0,0,0-.806-.154l-5.81,3.954a.576.576,0,0,0-.166.806l3.672,5.643a.576.576,0,0,0,.807.179l6.193-3.839a.6.6,0,0,0,.115-.883Z" transform="translate(1266.928 3277.07)"/><path class="p" d="M904.391,431.3l-4.005-5.72a.6.6,0,0,0-.819-.141l-5.861,3.941a.614.614,0,0,0-.166.819l3.685,5.643a.589.589,0,0,0,.806.179l6.181-3.839a.576.576,0,0,0,.179-.883Z" transform="translate(1265.218 3278.283)"/><path class="p" d="M897.319,436.223l-4.005-5.72a.589.589,0,0,0-.806-.141l-5.861,3.941a.6.6,0,0,0-.166.819l3.673,5.643a.6.6,0,0,0,.806.179l6.194-3.839a.563.563,0,0,0,.166-.883Z" transform="translate(1263.315 3279.659)"/><path class="p" d="M890.481,440.953l-3.967-5.707a.576.576,0,0,0-.806-.154l-5.861,3.954a.588.588,0,0,0-.166.806l3.672,5.643a.589.589,0,0,0,.806.179l6.193-3.839a.576.576,0,0,0,.128-.883Z" transform="translate(1261.483 3280.982)"/><path class="p" d="M934.034,399.843l-3.212-4.607a1.279,1.279,0,0,0-1.74-.32l-4.773,3.225a1.28,1.28,0,0,0-.346,1.728l2.956,4.543a1.28,1.28,0,0,0,1.728.371l5.029-3.161a1.28,1.28,0,0,0,.358-1.779Z" transform="translate(1273.391 3269.717)"/><path class="p" d="M926.914,404.77l-3.225-4.594a1.28,1.28,0,0,0-1.728-.333l-4.773,3.225a1.28,1.28,0,0,0-.345,1.728l2.956,4.543a1.279,1.279,0,0,0,1.715.384l5.042-3.173a1.28,1.28,0,0,0,.358-1.779Z" transform="translate(1271.473 3271.097)"/><path class="p" d="M919.782,409.7l-3.263-4.581a1.28,1.28,0,0,0-1.74-.32l-4.658,3.2a1.279,1.279,0,0,0-.359,1.727l2.956,4.543a1.279,1.279,0,0,0,1.727.384l5.042-3.161a1.28,1.28,0,0,0,.294-1.791Z" transform="translate(1269.566 3272.479)"/><path class="p" d="M912.664,414.629l-3.225-4.594a1.28,1.28,0,0,0-1.728-.32l-4.773,3.212a1.28,1.28,0,0,0-.345,1.728l2.956,4.543a1.28,1.28,0,0,0,1.715.384l5.042-3.161a1.28,1.28,0,0,0,.358-1.792Z" transform="translate(1267.633 3273.856)"/><path class="p" d="M906.012,420.193l-4.005-5.707a.588.588,0,0,0-.819-.154l-5.861,3.954a.589.589,0,0,0-.166.806l3.673,5.656a.589.589,0,0,0,.819.166l6.181-3.839a.588.588,0,0,0,.179-.883Z" transform="translate(1265.654 3275.177)"/><path class="p" d="M899.691,424.563l-4.005-5.707a.576.576,0,0,0-.806-.154l-5.823,3.941a.6.6,0,0,0-.166.819l3.673,5.643a.6.6,0,0,0,.806.179l6.193-3.839a.588.588,0,0,0,.128-.883Z" transform="translate(1263.964 3276.399)"/><path class="p" d="M892.639,429.453l-4.005-5.72a.6.6,0,0,0-.819-.141l-5.848,3.941a.6.6,0,0,0-.167.819L885.473,434a.589.589,0,0,0,.806.179l6.194-3.839a.589.589,0,0,0,.167-.883Z" transform="translate(1262.053 3277.766)"/><path class="p" d="M885.8,434.183l-4-5.707a.589.589,0,0,0-.819-.154l-5.848,3.954a.576.576,0,0,0-.166.806l3.673,5.656a.576.576,0,0,0,.806.166l6.194-3.839a.6.6,0,0,0,.166-.883Z" transform="translate(1260.21 3279.089)"/><path class="p" d="M883.652,445.693l-4.005-5.72a.6.6,0,0,0-.819-.141l-5.861,3.941a.6.6,0,0,0-.166.819l3.673,5.643a.6.6,0,0,0,.806.179l6.194-3.839a.576.576,0,0,0,.179-.883Z" transform="translate(1259.629 3282.308)"/><path class="p" d="M876.812,450.423l-4.005-5.707a.588.588,0,0,0-.819-.154l-5.861,3.954a.589.589,0,0,0-.166.806l3.672,5.643a.589.589,0,0,0,.819.179l6.181-3.839a.576.576,0,0,0,.179-.883Z" transform="translate(1257.786 3283.63)"/><path class="p" d="M887.505,422.039l-3.775-5.387a.794.794,0,0,0-1.088-.192l-5.567,3.724a.793.793,0,0,0-.217,1.088l3.455,5.323a.794.794,0,0,0,1.088.23l5.835-3.673a.781.781,0,0,0,.269-1.113Z" transform="translate(1260.714 3275.762)"/><path class="p" d="M880.656,426.769l-3.775-5.375a.781.781,0,0,0-1.088-.205l-5.528,3.737a.78.78,0,0,0-.217,1.075l3.455,5.323a.807.807,0,0,0,1.088.243l5.848-3.673a.807.807,0,0,0,.218-1.126Z" transform="translate(1258.879 3277.084)"/><path class="p" d="M873.83,431.509l-3.839-5.387a.78.78,0,0,0-1.075-.192l-5.541,3.724a.793.793,0,0,0-.218,1.088l3.455,5.324a.793.793,0,0,0,1.088.23l5.848-3.673a.78.78,0,0,0,.281-1.113Z" transform="translate(1257.022 3278.411)"/><path class="p" d="M867.12,436.433l-4.005-5.72a.6.6,0,0,0-.819-.141l-5.861,3.941a.6.6,0,0,0-.154.819l3.673,5.643a.588.588,0,0,0,.806.179l6.194-3.839a.589.589,0,0,0,.166-.883Z" transform="translate(1255.176 3279.718)"/><path class="p" d="M949.888,390.193l-3.416-4.939a1.28,1.28,0,0,0-1.74-.307l-13.615,9.482a1.28,1.28,0,0,0-.333,1.715l3.276,5.042a1.28,1.28,0,0,0,1.779.346l13.731-9.61A1.279,1.279,0,0,0,949.888,390.193Z" transform="translate(1273.156 3266.927)"/><path class="p" d="M880.906,438.837l-4.249-6a.576.576,0,0,0-.819-.141l-14.614,10.237a.589.589,0,0,0-.154.806l4.005,6.168a.588.588,0,0,0,.832.166l14.857-10.4A.6.6,0,0,0,880.906,438.837Z" transform="translate(1256.414 3280.309)"/><path class="p" d="M921.045,402.9l-3.839-5.695a.6.6,0,0,0-.819-.166l-32.439,21.882a.575.575,0,0,0-.167.806l3.992,6.142a.589.589,0,0,0,.832.166l32.35-22.317A.589.589,0,0,0,921.045,402.9Z" transform="translate(1262.421 3270.343)"/><path class="h" d="M928.43,392.1l-17.25-25.068a3.2,3.2,0,0,0-4.428-.844l-47.514,31.9a3.212,3.212,0,0,0-.857,4.466l17.582,25.785a3.2,3.2,0,0,0,4.466.845l47.181-32.644a3.186,3.186,0,0,0,.819-4.441Z" transform="translate(1255.246 3261.588)"/><path class="t" d="M929.039,392.221l-17.25-25.068a3.212,3.212,0,0,0-4.428-.845l-47.45,31.928a3.2,3.2,0,0,0-.87,4.466l17.531,25.76a3.2,3.2,0,0,0,4.466.845l47.206-32.644a3.187,3.187,0,0,0,.793-4.441Z" transform="translate(1255.424 3261.623)"/><path class="m" d="M1030.861,420.768l-36.6-12.208L876.88,490.1l36.329,11.837a6.654,6.654,0,0,0,5.874-.87l112.111-77.957a1.28,1.28,0,0,0-.333-2.342Z" transform="translate(1258.136 3273.591)"/></g></svg>