<svg xmlns="http://www.w3.org/2000/svg" width="791.638" height="601.668" viewBox="0 0 791.638 601.668"><defs><style>.a{fill:#2fd8c9;opacity:0.5;}</style></defs><path class="a" d="M394.7,93.841c-32.179-13.293-66.184-24.4-100.9-23-51.04,2.046-100.036,33.242-124.03,79.047-20.358,38.81-22.869,84.3-31.639,127.367-10.792,53.055-31.5,103.492-53.61,152.8-11.873,26.492-24.4,53.555-26.352,82.592-2.7,40.317,16.261,80.491,46,107.308s69.236,40.967,108.878,44.052c21.1,1.642,43.14.119,61.876-9.859,19.825-10.557,34.275-29.633,54.18-40.039,18.445-9.645,40.022-10.993,60.73-9.74A268.226,268.226,0,0,1,469.125,621.5c28.945,11.041,55.859,27.039,84.7,38.239s61.146,17.45,90.66,8.106c27.747-8.78,49.653-30.1,69.4-51.691a901.848,901.848,0,0,0,88.513-113.732c17.824-27.134,34.414-55.76,42.292-87.383,15.071-60.463-5.666-128.675-51.661-169.968-38.108-34.209-89.251-49.057-139.313-58.068-45.651-8.217-98.437-8.725-140.459-30.14C473.193,136.418,436.727,111.211,394.7,93.841Z" transform="translate(-57.92 -70.72)"/></svg>