<svg xmlns="http://www.w3.org/2000/svg" xmlns:xlink="http://www.w3.org/1999/xlink" width="1449.46" height="789.387" viewBox="0 0 1449.46 789.387"><defs><style>.a,.f,.m,.o{fill:#2fd8c9;}.b{fill:url(#a);}.c{fill:#fff;}.d{opacity:0.3;}.e{clip-path:url(#b);}.f{stroke:#fff;stroke-miterlimit:10;stroke-width:5px;}.g{fill:url(#c);}.h{fill:url(#d);}.i{fill:#f5f5f5;}.j{fill:#ff5252;}.k{fill:#ff0;}.l{fill:#69f0ae;}.m{opacity:0.5;}.n{fill:#e0e0e0;}.o{font-size:90px;font-family:Poppins-Bold, Poppins;font-weight:700;}</style><linearGradient id="a" x1="0.492" y1="0.75" x2="0.492" y2="0.182" gradientUnits="objectBoundingBox"><stop offset="0" stop-color="gray" stop-opacity="0.251"/><stop offset="0.54" stop-color="gray" stop-opacity="0.122"/><stop offset="1" stop-color="gray" stop-opacity="0.102"/></linearGradient><clipPath id="b"><rect class="a" width="640.707" height="342.759" transform="translate(47.051) rotate(7.89)"/></clipPath><linearGradient id="c" x1="0.289" y1="0.96" x2="0.289" y2="-0.045" xlink:href="#a"/><linearGradient id="d" x1="0.5" y1="1" x2="0.5" y2="0" xlink:href="#a"/></defs><g transform="translate(-27 -200)"><g transform="translate(444.109 199.887)"><rect class="b" width="386.271" height="679.698" transform="translate(306.065 392.934) rotate(-82.11)"/><rect class="c" width="669.435" height="375.724" transform="translate(362.303 16.085) rotate(7.89)"/><g class="d" transform="translate(327.44 33.737)"><rect class="a" width="640.707" height="342.759" transform="translate(47.051 0) rotate(7.89)"/><g class="e" transform="translate(0 0)"><path class="f" d="M316.808,27.66l257.591,427,156.7,21.718L1004.685,317.32,788.717,31.842,405.94,431.3,187.09,349.073,578.111,5.32,896.936,499.362" transform="translate(-310.246 -33.259)"/></g></g><path class="g" d="M714.834,157.54C710.291,190.3,642.91,258.8,642.91,258.8S591.962,173.9,596.5,141.139a59.736,59.736,0,1,1,118.344,16.379Z" transform="translate(-87.153 -89.47)"/><path class="a" d="M710.655,158.133c-4.258,30.726-67.469,95-67.469,95s-47.793-79.643-43.534-110.37a56.027,56.027,0,0,1,110.992,15.385Z" transform="translate(-86.862 -89.026)"/><ellipse class="c" cx="28.084" cy="28.018" rx="28.084" ry="28.018" transform="translate(537.29 80.936) rotate(-82.11)"/><path class="h" d="M0,213.51V769.889H802.341V213.51Z" transform="translate(0 19.612)"/><rect class="c" width="781.933" height="511.873" transform="translate(11.902 267.735)"/><rect class="i" width="781.933" height="37.66" transform="translate(11.902 243.386)"/><circle class="j" cx="9.128" cy="9.128" r="9.128" transform="translate(32.528 252.525)"/><circle class="k" cx="9.128" cy="9.128" r="9.128" transform="translate(57.642 252.525)"/><circle class="l" cx="9.128" cy="9.128" r="9.128" transform="translate(82.744 252.525)"/><rect class="m" width="143.804" height="15.407" transform="translate(329.547 404.594)"/><rect class="n" width="157.496" height="15.407" transform="translate(225.696 470.796)"/><rect class="n" width="157.496" height="15.407" transform="translate(577.212 486.203) rotate(180)"/><rect class="n" width="351.516" height="15.407" transform="translate(225.118 503.892)"/><rect class="n" width="351.516" height="15.407" transform="translate(225.118 536.987)"/><rect class="h" width="146.086" height="28.531" transform="translate(327.844 607.753)"/><path class="a" d="M0,0H143.8V23.345H0Z" transform="translate(328.979 610.341)"/></g><text class="o" transform="translate(27 319)"><tspan x="150.83" y="95">Impressum</tspan></text></g></svg>